<svg xmlns="http://www.w3.org/2000/svg" width="1000" height="1000"><text font-family="BubbleLetterRegular" font-size="18" style="white-space:pre" stroke-width="0" transform="rotate(-160.54 245.244 408.16) scale(5.65)"><tspan x="-5.03" y="5.65" font-weight="400">F</tspan></text><text font-family="BubbleLetterRegular" font-size="18" style="white-space:pre" stroke-width="0" transform="rotate(-146.17 253.207 373.239) scale(5.65)"><tspan x="-4.98" y="5.65" font-weight="400">R</tspan></text><text font-family="BubbleLetterRegular" font-size="18" style="white-space:pre" stroke-width="0" transform="rotate(-131.88 262.275 336.05) scale(5.65)"><tspan x="-4.73" y="5.65" font-weight="400">O</tspan></text><text font-family="BubbleLetterRegular" font-size="18" style="white-space:pre" stroke-width="0" transform="rotate(-117.94 268.48 293.536) scale(5.65)"><tspan x="-5.76" y="5.65" font-weight="400">N</tspan></text><text font-family="BubbleLetterRegular" font-size="18" style="white-space:pre" stroke-width="0" transform="rotate(-102.53 282.357 241.94) scale(5.65)"><tspan x="-5.01" y="5.65" font-weight="400">T</tspan></text><text font-family="BubbleLetterRegular" font-size="18" style="white-space:pre" stroke-width="0" transform="rotate(-88.18 295.813 181.162) scale(5.65)"><tspan x="-5.06" y="5.65" font-weight="400">-</tspan></text><text font-family="BubbleLetterRegular" font-size="18" style="white-space:pre" stroke-width="0" transform="rotate(-73.78 312.61 100.966) scale(5.65)"><tspan x="-5.35" y="5.65" font-weight="400">E</tspan></text><text font-family="BubbleLetterRegular" font-size="18" style="white-space:pre" stroke-width="0" transform="rotate(-58.96 337.14 -16.573) scale(5.65)"><tspan x="-5.76" y="5.65" font-weight="400">N</tspan></text><text font-family="BubbleLetterRegular" font-size="18" style="white-space:pre" stroke-width="0" transform="rotate(-43.54 383.114 -205.059) scale(5.65)"><tspan x="-4.81" y="5.65" font-weight="400">D</tspan></text><text font-family="BubbleLetterRegular" font-size="18" style="white-space:pre" stroke-width="0" transform="rotate(-18.31 594.709 -1215.513) scale(5.65)"><tspan x="-6.93" y="5.65" font-weight="400">W</tspan></text><text font-family="BubbleLetterRegular" font-size="18" style="white-space:pre" stroke-width="0" transform="rotate(-1.22 5759.479 -24385.607) scale(5.65)"><tspan x="-5.35" y="5.65" font-weight="400">E</tspan></text><text font-family="BubbleLetterRegular" font-size="18" style="white-space:pre" stroke-width="0" transform="rotate(13.59 -259.523 2674.365) scale(5.65)"><tspan x="-5.4" y="5.65" font-weight="400">B</tspan></text><text font-family="BubbleLetterRegular" font-size="18" style="white-space:pre" stroke-width="0" transform="rotate(39.68 72.777 1182.104) scale(5.65)"><tspan x="-4.81" y="5.65" font-weight="400">D</tspan></text><text font-family="BubbleLetterRegular" font-size="18" style="white-space:pre" stroke-width="0" transform="rotate(53.72 118.117 975.622) scale(5.65)"><tspan x="-5.35" y="5.65" font-weight="400">E</tspan></text><text font-family="BubbleLetterRegular" font-size="18" style="white-space:pre" stroke-width="0" transform="rotate(68.54 149.654 838.986) scale(5.65)"><tspan x="-4.74" y="5.65" font-weight="400">V</tspan></text><text font-family="BubbleLetterRegular" font-size="18" style="white-space:pre" stroke-width="0" transform="rotate(82.5 167.208 754.937) scale(5.65)"><tspan x="-5.35" y="5.65" font-weight="400">E</tspan></text><text font-family="BubbleLetterRegular" font-size="18" style="white-space:pre" stroke-width="0" transform="rotate(97.32 185.267 683.611) scale(5.65)"><tspan x="-4.37" y="5.65" font-weight="400">L</tspan></text><text font-family="BubbleLetterRegular" font-size="18" style="white-space:pre" stroke-width="0" transform="rotate(110.74 195.39 634.822) scale(5.65)"><tspan x="-4.73" y="5.65" font-weight="400">O</tspan></text><text font-family="BubbleLetterRegular" font-size="18" style="white-space:pre" stroke-width="0" transform="rotate(124.69 205.277 590.982) scale(5.65)"><tspan x="-4.71" y="5.65" font-weight="400">P</tspan></text><text font-family="BubbleLetterRegular" font-size="18" style="white-space:pre" stroke-width="0" transform="rotate(138.59 212.05 553.315) scale(5.65)"><tspan x="-5.35" y="5.65" font-weight="400">E</tspan></text><text font-family="BubbleLetterRegular" font-size="18" style="white-space:pre" stroke-width="0" transform="rotate(153.41 221.402 515.612) scale(5.65)"><tspan x="-4.98" y="5.65" font-weight="400">R</tspan></text></svg>